<svg id="Group_14" data-name="Group 14" xmlns="http://www.w3.org/2000/svg" width="30.881" height="30.348" viewBox="0 0 30.881 30.348">
  <path id="Path_38" data-name="Path 38" d="M30.881,15.267A15.354,15.354,0,0,0,15.44,0,15.354,15.354,0,0,0,0,15.267,15.325,15.325,0,0,0,13.028,30.348V19.68H9.107V15.267h3.92V11.9c0-3.826,2.305-5.94,5.832-5.94a24.005,24.005,0,0,1,3.456.3v3.757H20.369A2.219,2.219,0,0,0,17.853,12.4v2.864h4.282l-.685,4.413h-3.6V30.348A15.325,15.325,0,0,0,30.881,15.267Z" fill="#1877f2"/>
</svg>
