<svg xmlns="http://www.w3.org/2000/svg" width="31" height="31" viewBox="0 0 31 31">
  <g id="Group_17" data-name="Group 17" transform="translate(-195 -1373)">
    <circle id="Ellipse_46" data-name="Ellipse 46" cx="15.5" cy="15.5" r="15.5" transform="translate(195 1373)" fill="#ff3950"/>
    <g id="Group_15" data-name="Group 15" transform="translate(202.17 1380.051)">
      <path id="Path_34" data-name="Path 34" d="M12.417,5.581c2.226,0,2.49.008,3.369.049a4.615,4.615,0,0,1,1.548.287A2.761,2.761,0,0,1,18.917,7.5,4.615,4.615,0,0,1,19.2,9.048c.04.879.049,1.143.049,3.369s-.008,2.49-.049,3.369a4.615,4.615,0,0,1-.287,1.548,2.761,2.761,0,0,1-1.582,1.582,4.615,4.615,0,0,1-1.548.287c-.879.04-1.143.049-3.369.049s-2.49-.008-3.369-.049A4.615,4.615,0,0,1,7.5,18.917a2.761,2.761,0,0,1-1.582-1.582,4.615,4.615,0,0,1-.287-1.548c-.04-.879-.049-1.143-.049-3.369s.008-2.49.049-3.369A4.615,4.615,0,0,1,5.917,7.5,2.761,2.761,0,0,1,7.5,5.917,4.615,4.615,0,0,1,9.048,5.63c.879-.04,1.143-.049,3.369-.049m0-1.5c-2.264,0-2.548.01-3.438.05a6.12,6.12,0,0,0-2.024.388A4.264,4.264,0,0,0,4.517,6.955a6.12,6.12,0,0,0-.388,2.024c-.041.889-.05,1.173-.05,3.438s.01,2.548.05,3.438a6.12,6.12,0,0,0,.388,2.024,4.264,4.264,0,0,0,2.439,2.439,6.12,6.12,0,0,0,2.024.388c.889.041,1.173.05,3.438.05s2.548-.01,3.438-.05a6.12,6.12,0,0,0,2.024-.388,4.264,4.264,0,0,0,2.439-2.439,6.12,6.12,0,0,0,.388-2.024c.041-.889.05-1.173.05-3.438s-.01-2.548-.05-3.438a6.12,6.12,0,0,0-.388-2.024,4.264,4.264,0,0,0-2.439-2.439,6.12,6.12,0,0,0-2.024-.388c-.889-.041-1.173-.05-3.438-.05Z" transform="translate(-4.079 -4.079)" fill="#fff"/>
      <path id="Path_35" data-name="Path 35" d="M131.153,126.635a4.518,4.518,0,1,0,4.518,4.518A4.518,4.518,0,0,0,131.153,126.635Zm0,7.451a2.933,2.933,0,1,1,2.933-2.933A2.933,2.933,0,0,1,131.153,134.086Z" transform="translate(-122.815 -122.815)" fill="#fff"/>
      <circle id="Ellipse_43" data-name="Ellipse 43" cx="0.942" cy="0.942" r="0.942" transform="translate(11.882 2.91)" fill="#fff"/>
    </g>
  </g>
</svg>
