<svg xmlns="http://www.w3.org/2000/svg" width="271.243" height="90.919" viewBox="0 0 271.243 90.919">
  <g id="Group_4" data-name="Group 4" transform="translate(-252 -665)">
    <g id="Group_1" data-name="Group 1" transform="translate(252 663)">
      <path id="Path_1" data-name="Path 1" d="M45.535,63.428c-3.2,0-7.81-2.936-7.81-9.077,0-4.1,1.8-9.267,4.605-14.7-5.3,1.049-10.746,2.229-15.408,3.28-5.728,10.182-10.878,20.914-10.878,29a.644.644,0,0,1-.635.695c-2.154,0-5.415-2.7-5.415-7.247,0-5.093,3.688-12.62,8.427-20.634a20.729,20.729,0,0,1-3.556.487c-1.67,0-4.032-2.021-4.032-4.043a.5.5,0,0,1,.547-.563c3.424,0,6.7-.147,9.828-.412,7.6-12.28,16.252-24.621,16.252-29.786,0-.766-.487-1.315-1.61-1.315-9.416,0-30.065,14.5-30.065,34.865,0,3.556,1.4,5.785,1.4,6.272a.5.5,0,0,1-.559.488C4.885,50.736,0,46.692,0,40.137c0-18.761,21.9-33.2,35.291-33.2,4.029,0,7.039,3.012,7.039,6.141,0,4.459-6.7,14.716-13.326,26.139,5.429-.766,10.316-1.8,14.921-2.569,7.47-13.1,19.883-27.111,27.2-32.707C72.869,2.619,73.829,2,74.687,2a1.494,1.494,0,0,1,1.254,1.178c0,.413-.431.7-1.61,1.8C68.339,10.649,59.41,23.265,52.782,35.4c1.254-.057,2.51-.133,3.764-.133,1.813,0,2.716,1.184,2.716,1.874,0,.356-.207.488-.562.488a61.878,61.878,0,0,0-7.456.635c-4.322,8.293-7.4,16.1-7.4,20.782,0,.914.489,1.4,1.184,1.4,4.825,0,14.093-11.452,16.383-14.3.279-.341.427-.544.635-.544a1.4,1.4,0,0,1,1.178,1.254,2.725,2.725,0,0,1-.559,1.387c-1.934,3.129-12.1,15.186-17.135,15.186" fill="#ff3950"/>
      <path id="Path_2" data-name="Path 2" d="M77.267,58.054c-3.144,0-4.885-3.555-4.885-5.164-1.047,0-5.506,9.344-9.625,9.344-2.153,0-5.3-1.462-5.3-6.628,0-7.806,9.563-17.771,18.98-17.771,2.024,0,3.767,2.023,3.767,3s-1.671.34-4.606,1.594c-6.892,2.937-12.753,13.18-12.753,15.764,0,.413.205.635.487.635,1.667,0,9.137-9.623,11.083-12.356.9-1.33,1.67-2.3,2.438-2.3a3.135,3.135,0,0,1,2.788,3c0,3.013-3.484,5.857-3.484,7.187,0,.488.208.7.488.7,1.816,0,6.272-5.936,8.516-8.932.28-.341.412-.56.62-.56a1.4,1.4,0,0,1,1.183,1.27,2.83,2.83,0,0,1-.549,1.387c-.989,1.477-6.434,9.842-9.151,9.842" fill="#ff3950"/>
      <path id="Path_3" data-name="Path 3" d="M85.282,49.481c-.341,0-1.387-.635-1.387-1.33a3.8,3.8,0,0,1,.767-1.387c2.7-4.042,4.813-7.821,4.813-7.821a8.748,8.748,0,0,1-1.741-4.032c0-3.495,3.276-7.466,4.942-7.466a2.544,2.544,0,0,1,2.23,2.656c0,2.021-1.743,5.15-2.7,6.836,0,2.224,5.434,5.429,5.434,8.634,0,3.423-3.483,7.882-3.483,12.28,0,.691.411,1.046.842,1.046,2.153,0,9.194-9.284,11.7-12.767.28-.356.431-.559.636-.559a1.408,1.408,0,0,1,1.182,1.254,2.742,2.742,0,0,1-.563,1.4c-2.362,3.483-9.122,13.727-13.727,13.727-3.927,0-6.832-3-6.832-6.124,0-5.79,5.728-9.772,5.728-13.052,0-.9-.222-.971-1.817-2.225,0,0-1.8,3.067-5.226,8.233-.31.416-.514.695-.8.695" fill="#ff3950"/>
      <path id="Path_4" data-name="Path 4" d="M131.171,60.846c-2.864,0-5.448-1.888-5.448-4.25,0-4.606,6.216-10.391,6.216-12.209a.407.407,0,0,0-.427-.411c-1.182,0-5.921,6.2-9.552,11.29-1.047,1.462-1.535,2.154-2.713,2.154a4.392,4.392,0,0,1-3.616-4.308c0-4.266,6.491-10.818,6.567-13.271a.6.6,0,0,0-.635-.544c-1.122,0-6.273,6.477-10.244,13.033-4.118,6.832-3.072,8.573-4.738,8.573-1.4,0-4.119-2.021-4.119-5.018,0-4.118,5.506-10.8,6.836-16.323.279-1.239.487-1.594,1.046-1.594,1.256,0,2.7,1.742,2.7,3.483,0,1.89-2.641,6.984-3.129,7.883.975-1.4,9.548-13.667,13.387-13.667,2.021,0,4.322,2.3,4.322,4.678,0,2.509-2.58,4.591-3.7,8.293,0,0,5.933-7.749,9-7.749a4.117,4.117,0,0,1,3.836,4.25c-.016,3.088-5.963,8.045-5.963,12.489a.788.788,0,0,0,.71.842c2.641,0,9.325-9.329,11.57-12.355.28-.341.416-.544.62-.544a1.409,1.409,0,0,1,1.2,1.254,2.733,2.733,0,0,1-.564,1.387c-2.229,3.219-8.842,12.634-13.165,12.634" fill="#ff3950"/>
      <path id="Path_5" data-name="Path 5" d="M235.966,60.284a5.235,5.235,0,0,1-5.225-5.3c0-6.908,7.662-12.693,7.662-14.288a.547.547,0,0,0-.619-.634c-1.255,0-8.785,7.6-12.976,14.286-4.042,6.628-3.839,7.751-4.663,7.751-.974,0-3.219-1.743-3.219-4.886,0-6.125,5.166-11.219,6.836-18.334.279-1.178.487-1.462.974-1.462.972,0,3.348,1.6,3.348,4.387,0,3.277-2.23,6.979-2.23,6.979.976-.767,8.579-11.925,13.672-11.925,3.348,0,5.018,2.229,5.018,4.459-.077,5.505-8.649,10.315-8.649,14.993a.82.82,0,0,0,.838.9c3.277,0,9.421-8.09,11.646-11.086.283-.356.416-.559.619-.559a1.408,1.408,0,0,1,1.2,1.254,2.882,2.882,0,0,1-.563,1.4c-2.094,3.275-8.574,12.057-13.667,12.057" fill="#ff3950"/>
      <path id="Path_6" data-name="Path 6" d="M251.583,37.273c1.741,0,3.7,3.072,3.7,5.728,0,4.326-5.517,11.219-5.517,14.774a.55.55,0,0,0,.483.563c1.479,0,5.862-4.326,8.8-10.039,4.042-7.954,8.852-14.226,10.239-14.226a2.082,2.082,0,0,1,1.95,1.945c0,.5-4.739,3.291-7.954,17.166-3.544,15.322-8.634,39.735-29.269,39.735-4.118,0-6.7-1.889-6.7-2.788a.857.857,0,0,1,.7-.843c.766,0,2.3,1.123,4.753,1.123,12.469,0,21.549-22.88,25.165-36.324-3.484,4.323-5.505,6.831-7.943,6.831a5.152,5.152,0,0,1-5.018-4.885c0-5.577,5.638-12.205,5.638-17.918,0-.559.28-.842.975-.842" fill="#ff3950"/>
      <g id="Group_5" data-name="Group 5">
        <path id="Path_7" data-name="Path 7" d="M165.5,59.887c11,15.882,35.9,8.1,35.9-11.2s-24.9-27.1-35.9-11.217A17.944,17.944,0,0,1,191.04,34.9,16.644,16.644,0,0,0,168.1,39.075a14.941,14.941,0,0,1,21.818-1.168,13.312,13.312,0,0,0-19.456,4.225c6.435-9.39,21.138-4.844,21.138,6.536,0,11.4-14.7,15.942-21.138,6.553a13.312,13.312,0,0,0,19.456,4.225A14.952,14.952,0,0,1,168.1,58.308a16.672,16.672,0,0,0,22.941,4.175A17.959,17.959,0,0,1,165.5,59.9Z" fill="#f5b553"/>
        <path id="Path_8" data-name="Path 8" d="M177.841,23.859l3.173-6.277a.762.762,0,0,1,1.361,0l3.17,6.277a.756.756,0,0,1-.676,1.107h-6.333a.772.772,0,0,1-.695-1.107" fill="#f5b553"/>
        <path id="Path_9" data-name="Path 9" d="M185.545,73.509l-3.17,6.272a.768.768,0,0,1-1.361,0l-3.173-6.272a.769.769,0,0,1,.695-1.108h6.333a.754.754,0,0,1,.676,1.108" fill="#f5b553"/>
        <path id="Path_10" data-name="Path 10" d="M206.52,44.83,212.792,48a.759.759,0,0,1,0,1.361l-6.272,3.17a.766.766,0,0,1-1.107-.676V45.51a.764.764,0,0,1,1.107-.68" fill="#f5b553"/>
        <path id="Path_11" data-name="Path 11" d="M156.87,52.534l-6.262-3.17a.762.762,0,0,1,0-1.361l6.262-3.173a.761.761,0,0,1,1.107.68v6.348a.763.763,0,0,1-1.107.676" fill="#f5b553"/>
        <path id="Path_12" data-name="Path 12" d="M196.529,28.4l6.67-2.183a.761.761,0,0,1,.975.959l-2.2,6.669a.754.754,0,0,1-1.255.31l-4.485-4.5a.746.746,0,0,1,.294-1.255" fill="#f5b553"/>
        <path id="Path_13" data-name="Path 13" d="M166.875,68.948l-6.684,2.2a.76.76,0,0,1-.959-.96l2.2-6.684a.756.756,0,0,1,1.254-.295l4.486,4.486a.756.756,0,0,1-.3,1.254" fill="#f5b553"/>
        <path id="Path_14" data-name="Path 14" d="M201.975,63.5l2.2,6.684a.767.767,0,0,1-.975.96l-6.67-2.2a.743.743,0,0,1-.294-1.254l4.47-4.486a.769.769,0,0,1,1.27.295" fill="#f5b553"/>
        <path id="Path_15" data-name="Path 15" d="M161.431,33.849l-2.2-6.669a.754.754,0,0,1,.959-.959l6.684,2.183a.758.758,0,0,1,.3,1.255l-4.486,4.5a.753.753,0,0,1-1.254-.31" fill="#f5b553"/>
      </g>
      <path id="Path_16" data-name="Path 16" d="M30.1,76.729l-2.538-5.77L25.18,76.744,20.766,66.7h1.667l2.7,6.333,1.595-4,.782-1.981.843,1.966,1.712,4.012L32.59,66.7h1.64Z" fill="#2b3039"/>
      <path id="Path_17" data-name="Path 17" d="M38.465,69.171A3.283,3.283,0,1,0,40.8,68.2a3.319,3.319,0,0,0-2.347.975Zm.472,6.76a4.835,4.835,0,0,1-2.569-6.3A5.171,5.171,0,0,1,37.4,68.1a4.9,4.9,0,0,1,3.4-1.4,4.792,4.792,0,0,1,1.874.381A4.9,4.9,0,0,1,44.205,68.1a5.235,5.235,0,0,1,1.021,1.533,4.942,4.942,0,0,1,0,3.733A4.93,4.93,0,0,1,44.205,74.9a5.153,5.153,0,0,1-1.534,1.035,4.8,4.8,0,0,1-1.874.37A4.676,4.676,0,0,1,38.937,75.931Z" fill="#2b3039"/>
      <path id="Path_18" data-name="Path 18" d="M49.3,70.131V76.3H47.791V66.247l6.023,6.627V66.693h1.508V76.744Z" fill="#2b3039"/>
      <path id="Path_19" data-name="Path 19" d="M63.453,71.5a3.446,3.446,0,0,0-.783-2.362,3.187,3.187,0,0,0-2.523-.945H59.38v6.613h.767a3.242,3.242,0,0,0,2.523-.944,3.448,3.448,0,0,0,.783-2.362m1.5,0a4.908,4.908,0,0,1-1.164,3.366,3.924,3.924,0,0,1-1.549,1.062,5.721,5.721,0,0,1-2.1.382h-2.29V66.7h2.29a5.219,5.219,0,0,1,2.1.371,3.943,3.943,0,0,1,1.549,1.061A4.918,4.918,0,0,1,64.957,71.5Z" fill="#2b3039"/>
      <path id="Path_20" data-name="Path 20" d="M68.633,70.6h3.514v1.372H68.633v2.966H72.9V76.3h-5.77V66.693H72.9v1.356H68.633Z" fill="#2b3039"/>
      <path id="Path_21" data-name="Path 21" d="M78.034,71.711a1.747,1.747,0,0,0,1.387-.519,2.251,2.251,0,0,0,0-2.625,1.789,1.789,0,0,0-1.387-.519H76.693v3.663ZM81.9,76.3h-1.7l-2.423-3.234H76.693v3.246H75.185V66.7h2.834a3.1,3.1,0,0,1,2.422.961,3.575,3.575,0,0,1,0,4.443,2.914,2.914,0,0,1-1.122.741Z" fill="#2b3039"/>
      <path id="Path_22" data-name="Path 22" d="M88.78,74.382a2.772,2.772,0,0,1-2.154,1.874,3.407,3.407,0,0,1-1.726-.163,3.733,3.733,0,0,1-1.594-1.224l1.193-.93a2.194,2.194,0,0,0,.945.752,1.457,1.457,0,0,0,.873.072,1.258,1.258,0,0,0,1.016-.8,1.137,1.137,0,0,0-.442-1.092c-.427-.4-1.122-1.092-1.178-1.133l-1.184-1.123a2.707,2.707,0,0,1-.736-1.153,2.067,2.067,0,0,1-.016-1.194,2.135,2.135,0,0,1,.707-1.079,2.369,2.369,0,0,1,1.153-.544,2.453,2.453,0,0,1,1.417.1,3.106,3.106,0,0,1,1.315.975l-1.183.945a1.257,1.257,0,0,0-1.27-.544.87.87,0,0,0-.691.544c-.061.192-.046.487.351.868l1.61,1.553c.238.22.518.5.725.692a2.8,2.8,0,0,1,.839,1.255,2.2,2.2,0,0,1,.03,1.345" fill="#2b3039"/>
      <rect id="Rectangle_29" data-name="Rectangle 29" width="1.504" height="9.609" transform="translate(95.453 66.693)" fill="#2b3039"/>
      <path id="Path_23" data-name="Path 23" d="M100.974,70.131V76.3H99.466V66.247l6.023,6.627V66.693h1.5V76.744Z" fill="#2b3039"/>
      <path id="Path_24" data-name="Path 24" d="M111.039,70.6h3.5v1.372h-3.5V76.3h-1.507V66.693h5.773v1.356h-4.266Z" fill="#2b3039"/>
      <rect id="Rectangle_30" data-name="Rectangle 30" width="1.504" height="9.609" transform="translate(116.957 66.693)" fill="#2b3039"/>
      <path id="Path_25" data-name="Path 25" d="M122.478,70.131V76.3h-1.5V66.247l6.02,6.627V66.693H128.5V76.744Z" fill="#2b3039"/>
      <rect id="Rectangle_31" data-name="Rectangle 31" width="1.504" height="9.609" transform="translate(131.055 66.693)" fill="#2b3039"/>
      <path id="Path_26" data-name="Path 26" d="M141.238,68.048H138.6V76.3h-1.507V68.048h-2.641V66.693h6.805Z" fill="#2b3039"/>
      <path id="Path_27" data-name="Path 27" d="M144.646,70.6h3.514v1.372h-3.514v2.966H148.9V76.3h-5.755V66.693H148.9v1.356h-4.251Z" fill="#2b3039"/>
    </g>
  </g>
</svg>
